<?xml version="1.0" encoding="iso-8859-1"?>
<!-- Generator: Adobe Illustrator 16.0.0, SVG Export Plug-In . SVG Version: 6.00 Build 0)  -->
<!DOCTYPE svg PUBLIC "-//W3C//DTD SVG 1.1//EN" "http://www.w3.org/Graphics/SVG/1.1/DTD/svg11.dtd">
<svg version="1.1" xmlns="http://www.w3.org/2000/svg" xmlns:xlink="http://www.w3.org/1999/xlink" x="0px" y="0px" width="512px"
	 height="512px" viewBox="0 0 512 512" style="enable-background:new 0 0 512 512;" xml:space="preserve">
<g id="_x34_34_x2C__Code_x2C__Coding_x2C__Develop_x2C__Development_x2C__Programming">
	<g>
		<g>
			<polygon style="fill:#57606F;" points="486,391 486,471 26,471 26,391 66,391 186,391 186,421 316,421 316,391 446,391 			"/>
			<path style="fill:#313A52;" d="M486,136.33v29.34h-30.67c-2.08,11.36-6.55,21.89-12.87,31.05l21.69,21.69l-20.74,20.74
				l-21.69-21.69c-9.16,6.32-19.689,10.79-31.05,12.87V261h-29.34v-30.67c-11.36-2.08-21.89-6.55-31.05-12.87l-21.69,21.69
				l-20.74-20.74l21.69-21.69c-6.32-9.16-10.79-19.69-12.87-31.05H266v-29.34h30.67c2.08-11.36,6.55-21.89,12.87-31.05l-21.69-21.69
				l20.74-20.74l21.69,21.69c9.16-6.32,19.689-10.79,31.05-12.87V41h29.34v30.67c11.36,2.08,21.89,6.55,31.05,12.87l21.69-21.69
				l20.74,20.74l-21.69,21.69c6.32,9.16,10.79,19.69,12.87,31.05H486z M420,151c0-24.3-19.7-44-44-44s-44,19.7-44,44s19.7,44,44,44
				S420,175.3,420,151z"/>
			<polygon points="294.65,283.73 312.5,283.73 312.5,292.2 294.65,292.2 294.65,301.82 316,301.82 316,311 284.21,311 
				284.21,265.76 315.43,265.76 315.43,274.94 294.65,274.94 			"/>
			<path d="M276.37,297.65c-1.061,2.779-2.58,5.159-4.561,7.14c-1.97,1.97-4.35,3.5-7.13,4.59c-2.79,1.08-5.88,1.62-9.28,1.62
				h-16.88v-45.24h16.88c3.74,0,7.01,0.601,9.82,1.78c2.8,1.19,5.15,2.81,7.04,4.85c1.891,2.04,3.311,4.431,4.271,7.16
				c0.95,2.74,1.43,5.67,1.43,8.771C277.96,291.76,277.43,294.87,276.37,297.65z M267.32,288.32c0-2-0.271-3.82-0.801-5.45
				c-0.529-1.64-1.3-3.05-2.319-4.24c-1.021-1.189-2.28-2.1-3.76-2.74c-1.49-0.64-3.171-0.949-5.041-0.949h-6.43v26.88h6.43
				c1.92,0,3.61-0.33,5.1-1.021c1.49-0.67,2.73-1.62,3.73-2.83s1.76-2.63,2.289-4.27C267.05,292.07,267.32,290.27,267.32,288.32z"/>
			<path d="M215.45,275.92c-1.36-0.74-2.91-1.11-4.65-1.11c-1.82,0-3.42,0.391-4.78,1.181c-1.36,0.779-2.49,1.81-3.41,3.09
				c-0.91,1.27-1.6,2.729-2.07,4.36c-0.46,1.64-0.7,3.31-0.7,5c0,1.75,0.25,3.43,0.74,5.069c0.48,1.63,1.18,3.09,2.1,4.36
				c0.91,1.28,2.06,2.3,3.44,3.06c1.38,0.771,2.96,1.15,4.75,1.15c1.82,0,3.42-0.4,4.78-1.21c1.35-0.811,2.49-1.86,3.4-3.16
				c0.92-1.29,1.6-2.76,2.04-4.39c0.45-1.641,0.67-3.301,0.67-5c0-1.74-0.24-3.431-0.73-5.07c-0.49-1.63-1.2-3.08-2.14-4.33
				C217.96,277.67,216.81,276.67,215.45,275.92z M219.44,309.47c-2.66,1.28-5.56,1.91-8.7,1.91c-3.23,0-6.16-0.66-8.79-1.97
				c-2.64-1.32-4.9-3.05-6.79-5.2c-1.42-1.61-2.6-3.38-3.54-5.34c-0.31-0.65-0.6-1.33-0.86-2.021c-1.04-2.76-1.56-5.6-1.56-8.529
				c0-2.98,0.54-5.84,1.63-8.61c0.27-0.69,0.57-1.36,0.89-2.01c0.97-1.94,2.18-3.7,3.63-5.28c1.93-2.1,4.23-3.78,6.88-5.04
				c2.66-1.25,5.56-1.87,8.7-1.87c3.23,0,6.16,0.65,8.79,1.971c2.64,1.319,4.9,3.06,6.79,5.229c1.89,2.16,3.34,4.63,4.36,7.39
				c1.02,2.761,1.53,5.561,1.53,8.41c0,2.971-0.54,5.84-1.62,8.601c-1.09,2.76-2.58,5.189-4.49,7.3
				C224.37,306.51,222.09,308.2,219.44,309.47z"/>
			<path d="M174.26,310.68c-1.85,0.471-3.66,0.7-5.45,0.7c-3.14,0-6.02-0.67-8.63-2c-2.61-1.34-4.87-3.12-6.76-5.33
				c-1.89-2.2-3.36-4.71-4.42-7.51c-1.07-2.81-1.6-5.65-1.6-8.54c0-2.72,0.49-5.43,1.47-8.13c0.98-2.69,2.4-5.101,4.27-7.23
				c1.87-2.12,4.15-3.84,6.85-5.159c2.69-1.32,5.76-1.971,9.2-1.971c4.04,0,7.54,0.91,10.52,2.74c2.97,1.82,5.18,4.2,6.62,7.13
				l-8.02,5.61c-0.47-1.19-1.07-2.181-1.79-2.96c-0.72-0.79-1.51-1.431-2.36-1.92c-0.85-0.48-1.73-0.82-2.64-1.021
				c-0.91-0.189-1.77-0.28-2.58-0.28c-1.87,0-3.48,0.4-4.84,1.21c-1.36,0.811-2.49,1.851-3.38,3.12c-0.89,1.28-1.56,2.721-2.01,4.33
				c-0.44,1.62-0.67,3.25-0.67,4.91c0,1.78,0.27,3.5,0.8,5.16c0.53,1.66,1.27,3.12,2.23,4.4c0.96,1.27,2.11,2.279,3.47,3.02
				c1.36,0.75,2.87,1.12,4.53,1.12c0.85,0,1.73-0.12,2.64-0.35c0.91-0.23,1.8-0.601,2.65-1.08c0.85-0.49,1.61-1.131,2.29-1.92
				c0.68-0.78,1.23-1.75,1.66-2.9l8.6,5.04c-0.68,1.66-1.67,3.14-2.96,4.46c-1.3,1.32-2.78,2.42-4.43,3.31
				C177.86,309.53,176.11,310.21,174.26,310.68z"/>
			<path d="M486,481H26c-5.523,0-10-4.478-10-10v-80c0-5.522,4.477-10,10-10h160c5.523,0,10,4.478,10,10v20h110v-20
				c0-5.522,4.478-10,10-10h170c5.522,0,10,4.478,10,10v80C496,476.522,491.522,481,486,481z M36,461h440v-60H326v20
				c0,5.522-4.478,10-10,10H186c-5.523,0-10-4.478-10-10v-20H36V461z"/>
			<path d="M446,401c-5.522,0-10-4.478-10-10v-90c0-5.522,4.478-10,10-10s10,4.478,10,10v90C456,396.522,451.522,401,446,401z"/>
			<path d="M66,401c-5.523,0-10-4.478-10-10V71c0-5.523,4.477-10,10-10h160c5.523,0,10,4.477,10,10s-4.477,10-10,10H76v310
				C76,396.522,71.523,401,66,401z"/>
			<path d="M322.231,351.003c-18.8,0-41.119-0.03-66.738-0.09c-68.434-0.159-137.599-0.48-138.29-0.483
				c-5.504-0.025-9.953-4.495-9.953-10V121c0-5.523,4.477-10,10-10H226c5.523,0,10,4.477,10,10s-4.477,10-10,10h-98.75v199.476
				c93.466,0.419,222.55,0.771,257.5,0.306V301c0-5.522,4.478-10,10-10s10,4.478,10,10v39.43c0,2.652-1.054,5.195-2.929,7.071
				c-2.927,2.927-5.938,3.015-10.107,3.137c-2.097,0.062-5.173,0.116-9.144,0.162c-7.307,0.084-17.973,0.143-31.701,0.174
				C342.495,350.993,332.933,351.003,322.231,351.003z"/>
			<path d="M376,205c-29.775,0-54-24.224-54-54s24.225-54,54-54s54,24.224,54,54S405.775,205,376,205z M376,117
				c-18.748,0-34,15.252-34,34s15.252,34,34,34s34-15.252,34-34S394.748,117,376,117z"/>
			<path d="M390.67,271h-29.34c-5.522,0-10-4.478-10-10v-22.729c-6.839-1.921-13.389-4.637-19.594-8.125l-16.075,16.075
				c-3.906,3.905-10.236,3.905-14.143,0l-20.74-20.74c-1.875-1.875-2.929-4.419-2.929-7.071s1.054-5.196,2.929-7.071l16.075-16.075
				c-3.487-6.205-6.203-12.755-8.124-19.594H266c-5.522,0-10-4.477-10-10v-29.34c0-5.523,4.478-10,10-10h22.729
				c1.921-6.839,4.637-13.39,8.124-19.594l-16.075-16.075c-1.875-1.875-2.929-4.419-2.929-7.071s1.054-5.196,2.929-7.071
				l20.74-20.74c3.906-3.905,10.236-3.905,14.143,0l16.075,16.075c6.205-3.488,12.755-6.203,19.594-8.125V41c0-5.523,4.478-10,10-10
				h29.34c5.522,0,10,4.477,10,10v22.729c6.839,1.921,13.389,4.637,19.594,8.125l16.075-16.075c3.906-3.905,10.236-3.905,14.143,0
				l20.74,20.74c1.875,1.875,2.929,4.419,2.929,7.071s-1.054,5.196-2.929,7.071l-16.075,16.075
				c3.487,6.205,6.203,12.755,8.124,19.594H486c5.522,0,10,4.477,10,10v29.34c0,5.523-4.478,10-10,10h-22.729
				c-1.921,6.839-4.637,13.39-8.124,19.594l16.075,16.075c1.875,1.875,2.929,4.419,2.929,7.071s-1.054,5.196-2.929,7.071
				l-20.74,20.74c-3.906,3.905-10.236,3.905-14.143,0l-16.075-16.075c-6.205,3.488-12.755,6.203-19.594,8.125V261
				C400.67,266.522,396.192,271,390.67,271z M371.33,251h9.34v-20.67c0-4.828,3.45-8.967,8.199-9.836
				c9.795-1.793,18.938-5.583,27.172-11.265c3.972-2.74,9.337-2.252,12.75,1.16l14.619,14.619l6.598-6.598l-14.619-14.619
				c-3.413-3.413-3.901-8.777-1.159-12.75c5.681-8.233,9.47-17.375,11.264-27.172c0.87-4.749,5.009-8.199,9.837-8.199H476v-9.34
				h-20.67c-4.828,0-8.967-3.45-9.837-8.199c-1.794-9.797-5.583-18.939-11.264-27.172c-2.742-3.973-2.254-9.337,1.159-12.75
				l14.619-14.619l-6.598-6.598l-14.619,14.619c-3.413,3.412-8.776,3.901-12.75,1.16c-8.234-5.681-17.377-9.471-27.172-11.265
				c-4.749-0.87-8.199-5.008-8.199-9.836V51h-9.34v20.67c0,4.828-3.45,8.967-8.199,9.836c-9.795,1.793-18.938,5.583-27.172,11.265
				c-3.971,2.741-9.336,2.253-12.75-1.16L308.59,76.992l-6.598,6.598l14.619,14.619c3.413,3.413,3.901,8.777,1.159,12.75
				c-5.681,8.233-9.47,17.375-11.264,27.172c-0.87,4.749-5.009,8.199-9.837,8.199H276v9.34h20.67c4.828,0,8.967,3.45,9.837,8.199
				c1.794,9.797,5.583,18.939,11.264,27.172c2.742,3.973,2.254,9.337-1.159,12.75l-14.619,14.619l6.598,6.598l14.619-14.619
				c3.413-3.413,8.776-3.901,12.75-1.16c8.234,5.681,17.377,9.471,27.172,11.265c4.749,0.87,8.199,5.008,8.199,9.836V251z"/>
		</g>
	</g>
</g>
<g id="Layer_1">
</g>
</svg>
